# xmcd
#
# Track frame offsets:
#	150
#	14528
#	34354
#	37796
#	54877
#	72404
#	90850
#	108642
#	110663
#	126616
#	147096
#	165375
#	185131
#
# Disc length: 2728 seconds
#
# Revision: 119623810
# Processed by: cddbd v1.5.1PL0 Copyright (c) Steve Scherf et al.
# Submitted via: EasyCDDAExtractor 8.0.2.1
#
DISCID=b30aa60d
DTITLE=Sharissa - No Half Steppin'
DYEAR=2002
DGENRE=R&B
TTITLE0=No Half Steppin'
TTITLE1=All These Years
TTITLE2=Intro (Skit)
TTITLE3=Any Other Night
TTITLE4=Put Down That Phone
TTITLE5=I`m Waiting
TTITLE6=I Can`t Wait
TTITLE7=Argument (Skit)
TTITLE8=Thug Love
TTITLE9=Dun Put Up Too Long
TTITLE10=Over A Man
TTITLE11=Do We Really
TTITLE12=Issues
EXTD=
EXTT0=
EXTT1=
EXTT2=
EXTT3=
EXTT4=
EXTT5=
EXTT6=
EXTT7=
EXTT8=
EXTT9=
EXTT10=
EXTT11=
EXTT12=
PLAYORDER=
